<svg xmlns="http://www.w3.org/2000/svg" xmlns:xlink="http://www.w3.org/1999/xlink" viewBox="0 0 1921 1280.67"><defs><style>.cls-1{fill:none;}.cls-2{fill:url(#linear-gradient);}.cls-3{fill:url(#linear-gradient-2);}.cls-4{fill:url(#linear-gradient-3);}.cls-5{fill:url(#linear-gradient-4);}.cls-6{fill:url(#linear-gradient-5);}.cls-7{fill:url(#linear-gradient-6);}.cls-8{fill:url(#linear-gradient-7);}.cls-9{fill:url(#linear-gradient-8);}.cls-10{fill:url(#linear-gradient-9);}.cls-11{fill:url(#linear-gradient-10);}.cls-12{fill:url(#linear-gradient-11);}.cls-13{fill:url(#linear-gradient-12);}</style><linearGradient id="linear-gradient" x1="1365.99" y1="8.5" x2="1042.65" y2="608.38" gradientUnits="userSpaceOnUse"><stop offset="0" stop-color="#2c27ce"/><stop offset="1" stop-color="#b1ffff"/></linearGradient><linearGradient id="linear-gradient-2" x1="2102.86" y1="227.61" x2="1779.53" y2="827.47" gradientTransform="translate(-57.03 151.1) rotate(-7.96)" gradientUnits="userSpaceOnUse"><stop offset="0" stop-color="#2c27ce"/><stop offset="1" stop-color="#16b1ff"/></linearGradient><linearGradient id="linear-gradient-3" x1="1343.57" y1="-3.58" x2="1020.23" y2="596.3" xlink:href="#linear-gradient"/><linearGradient id="linear-gradient-4" x1="1448.26" y1="-125.22" x2="1124.93" y2="474.64" xlink:href="#linear-gradient-2"/><linearGradient id="linear-gradient-5" x1="2039.76" y1="105.42" x2="1716.41" y2="705.32" gradientTransform="translate(-82.74 267.74) rotate(-13.97)" gradientUnits="userSpaceOnUse"><stop offset="0" stop-color="#293e7d"/><stop offset="1" stop-color="#16b1ff"/></linearGradient><linearGradient id="linear-gradient-6" x1="1708.12" y1="192.91" x2="1384.78" y2="792.8" xlink:href="#linear-gradient"/><linearGradient id="linear-gradient-7" x1="1969.34" y1="67.47" x2="1645.99" y2="667.36" xlink:href="#linear-gradient-5"/><linearGradient id="linear-gradient-8" x1="1989.85" y1="166.7" x2="1666.52" y2="766.56" xlink:href="#linear-gradient-2"/><linearGradient id="linear-gradient-9" x1="2062.02" y1="117.42" x2="1738.67" y2="717.32" xlink:href="#linear-gradient-5"/><linearGradient id="linear-gradient-10" x1="1329.88" y1="-10.96" x2="1006.54" y2="588.92" xlink:href="#linear-gradient"/><linearGradient id="linear-gradient-11" x1="1440.23" y1="-129.55" x2="1116.9" y2="470.31" xlink:href="#linear-gradient-2"/><linearGradient id="linear-gradient-12" x1="1501.58" y1="-184.66" x2="1178.23" y2="415.24" xlink:href="#linear-gradient-5"/></defs><title>Asset 7</title><g id="Layer_2" data-name="Layer 2"><g id="Layer_1-2" data-name="Layer 1"><path class="cls-1" d="M1641.33,744.51C1534.12,633.92,1568.78,557,1343.54,643.33c-76.48,29.32-167.37,29.46-237.71-16-50.6-32.69-86.93-87.91-93.29-147.81-3.53-33.33,1.87-66.92,1.61-100.43s-7.34-69.19-30.94-93c-22.74-22.9-56.72-30.64-89-32-77.55-3.21-154.31,25.6-231.81,15.38-65.31-8.61-135.78-43.5-174.6-97.76C452.35,122.19,443.39,60.72,444.63,0H14.94A15,15,0,0,0,0,14.94V1265.73a15,15,0,0,0,14.94,14.94H1906.06a15,15,0,0,0,14.94-14.94V696.51C1848.3,838.78,1710.5,815.85,1641.33,744.51Z"/><path class="cls-2" d="M487.83,171.78c38.82,54.26,109.29,89.15,174.6,97.76,77.5,10.22,154.26-18.59,231.81-15.38,32.25,1.33,66.23,9.07,89,32,23.6,23.78,30.68,59.47,30.94,93s-5.14,67.1-1.61,100.43c6.36,59.9,42.69,115.12,93.29,147.81,70.34,45.45,161.23,45.31,237.71,16,225.24-86.37,190.58-9.41,297.79,101.18,69.17,71.34,207,94.27,279.67-48V548.72c-59,25.56-128,9.59-174.92-27-121.5-94.68-97.82-175.7-308.94-59-71.68,39.63-161.67,52.34-237.64,17.07-54.63-25.37-98.26-75-112.84-133.47-8.12-32.52-7.42-66.53-12.31-99.68s-16.85-67.51-43.52-87.8c-25.69-19.53-60.42-22.49-92.54-19.34C861,147.06,789,186.22,710.85,186.83c-65.88.51-140.5-24.28-186.46-72.65C494.1,82.3,476.61,42.4,466.52,0H444.63C443.39,60.72,452.35,122.19,487.83,171.78Z"/><path class="cls-3" d="M1921,459.51v-6.58c-1.14.37-2.28.72-3.43,1.07C1918.74,455.83,1919.88,457.66,1921,459.51Z"/><path class="cls-4" d="M710.85,186.83C789,186.22,861,147.06,938.29,139.51c32.12-3.15,66.85-.19,92.54,19.34,26.67,20.29,38.62,54.65,43.52,87.8s4.19,67.16,12.31,99.68c14.58,58.44,58.21,108.1,112.84,133.47,76,35.27,166,22.56,237.64-17.07,211.12-116.72,187.44-35.7,308.94,59,47,36.6,115.93,52.57,174.92,27V459.51c-1.12-1.85-2.26-3.68-3.43-5.51-41.26,12.68-83,9.24-115.37-10.93-130.75-81.44-105.54-224.08-303.27-85.89-67.13,46.91-155.3,69-234.54,41.86-57-19.51-105.58-64.32-126.21-120.92-11.47-31.48-14.34-65.38-22.68-97.84s-23.82-65.37-52.47-82.75c-27.59-16.74-62.44-16-94-9.55-76,15.6-143.57,62.09-221.24,70.89-65.47,7.4-142.27-9.44-193-52.72C521.59,77.93,500.13,40.59,485.66,0H466.52c10.09,42.4,27.58,82.3,57.87,114.18C570.35,162.55,645,187.34,710.85,186.83Z"/><path class="cls-5" d="M710.85,186.83C789,186.22,861,147.06,938.29,139.51c32.12-3.15,66.85-.19,92.54,19.34,26.67,20.29,38.62,54.65,43.52,87.8s4.19,67.16,12.31,99.68c14.58,58.44,58.21,108.1,112.84,133.47,76,35.27,166,22.56,237.64-17.07,211.12-116.72,187.44-35.7,308.94,59,47,36.6,115.93,52.57,174.92,27V459.51c-1.12-1.85-2.26-3.68-3.43-5.51-41.26,12.68-83,9.24-115.37-10.93-130.75-81.44-105.54-224.08-303.27-85.89-67.13,46.91-155.3,69-234.54,41.86-57-19.51-105.58-64.32-126.21-120.92-11.47-31.48-14.34-65.38-22.68-97.84s-23.82-65.37-52.47-82.75c-27.59-16.74-62.44-16-94-9.55-76,15.6-143.57,62.09-221.24,70.89-65.47,7.4-142.27-9.44-193-52.72C521.59,77.93,500.13,40.59,485.66,0H466.52c10.09,42.4,27.58,82.3,57.87,114.18C570.35,162.55,645,187.34,710.85,186.83Z"/><path class="cls-6" d="M1921,139.86V14.94A15,15,0,0,0,1906.06,0h-76.73a324.29,324.29,0,0,1-15.78,43.73C1841.71,78.4,1882.31,107.6,1921,139.86Z"/><path class="cls-7" d="M1829.33,0h-42.25c6.34,15.75,15.45,30.16,26.47,43.73A324.29,324.29,0,0,0,1829.33,0Z"/><path class="cls-8" d="M1829.33,0h-42.25c6.34,15.75,15.45,30.16,26.47,43.73A324.29,324.29,0,0,0,1829.33,0Z"/><path class="cls-9" d="M1813.55,43.73A435.71,435.71,0,0,1,1784,99.16c-103.85,166.13,57.28,235.5,133.61,354.84,1.15-.35,2.29-.7,3.43-1.07V139.86C1882.31,107.6,1841.71,78.4,1813.55,43.73Z"/><path class="cls-10" d="M1813.55,43.73A435.71,435.71,0,0,1,1784,99.16c-103.85,166.13,57.28,235.5,133.61,354.84,1.15-.35,2.29-.7,3.43-1.07V139.86C1882.31,107.6,1841.71,78.4,1813.55,43.73Z"/><path class="cls-11" d="M554.7,106.15c50.77,43.28,127.57,60.12,193,52.72C825.41,150.07,892.94,103.58,969,88c31.61-6.49,66.46-7.19,94,9.55,28.65,17.38,44.13,50.3,52.47,82.75s11.21,66.36,22.68,97.84c20.63,56.6,69.22,101.41,126.21,120.92,79.24,27.13,167.41,5,234.54-41.86,197.73-138.19,172.52,4.45,303.27,85.89,32.38,20.17,74.11,23.61,115.37,10.93C1841.24,334.66,1680.11,265.29,1784,99.16a435.71,435.71,0,0,0,29.59-55.43c-11-13.57-20.13-28-26.47-43.73H485.66C500.13,40.59,521.59,77.93,554.7,106.15Z"/><path class="cls-12" d="M554.7,106.15c50.77,43.28,127.57,60.12,193,52.72C825.41,150.07,892.94,103.58,969,88c31.61-6.49,66.46-7.19,94,9.55,28.65,17.38,44.13,50.3,52.47,82.75s11.21,66.36,22.68,97.84c20.63,56.6,69.22,101.41,126.21,120.92,79.24,27.13,167.41,5,234.54-41.86,197.73-138.19,172.52,4.45,303.27,85.89,32.38,20.17,74.11,23.61,115.37,10.93C1841.24,334.66,1680.11,265.29,1784,99.16a435.71,435.71,0,0,0,29.59-55.43c-11-13.57-20.13-28-26.47-43.73H485.66C500.13,40.59,521.59,77.93,554.7,106.15Z"/><path class="cls-13" d="M554.7,106.15c50.77,43.28,127.57,60.12,193,52.72C825.41,150.07,892.94,103.58,969,88c31.61-6.49,66.46-7.19,94,9.55,28.65,17.38,44.13,50.3,52.47,82.75s11.21,66.36,22.68,97.84c20.63,56.6,69.22,101.41,126.21,120.92,79.24,27.13,167.41,5,234.54-41.86,197.73-138.19,172.52,4.45,303.27,85.89,32.38,20.17,74.11,23.61,115.37,10.93C1841.24,334.66,1680.11,265.29,1784,99.16a435.71,435.71,0,0,0,29.59-55.43c-11-13.57-20.13-28-26.47-43.73H485.66C500.13,40.59,521.59,77.93,554.7,106.15Z"/></g></g></svg>