<svg xmlns="http://www.w3.org/2000/svg" xmlns:xlink="http://www.w3.org/1999/xlink" width="455.28" height="477.98" viewBox="0 0 455.28 477.98">
  <defs>
    <linearGradient id="linear-gradient" x1="-1.125" y1="0.501" x2="0.687" y2="0.501" gradientUnits="objectBoundingBox">
      <stop offset="0" stop-color="#008161"/>
      <stop offset="1" stop-color="#9fff31"/>
    </linearGradient>
    <linearGradient id="linear-gradient-3" x1="-1.67" y1="0.501" x2="1.021" y2="0.501" xlink:href="#linear-gradient"/>
    <linearGradient id="linear-gradient-4" x1="0.754" y1="3.439" x2="0.637" y2="2.089" gradientUnits="objectBoundingBox">
      <stop offset="0" stop-color="#f70f47"/>
      <stop offset="1" stop-color="#ffb41d"/>
    </linearGradient>
    <linearGradient id="linear-gradient-5" x1="-5.486" y1="0.5" x2="2.211" y2="0.5" xlink:href="#linear-gradient-4"/>
  </defs>
  <g id="elements" transform="translate(-394.28)">
    <rect id="Rectangle_2" data-name="Rectangle 2" width="361.72" height="361.72" transform="translate(414.2 25.84)" fill="#ffd180" opacity="0.4"/>
    <rect id="Rectangle_3" data-name="Rectangle 3" width="352.94" height="66.04" transform="translate(394.28 59.68)" fill="#ebfff8"/>
    <rect id="Rectangle_4" data-name="Rectangle 4" width="46.93" height="46.93" transform="translate(689.73 69.23)" fill="#d3e8f2"/>
    <rect id="Rectangle_5" data-name="Rectangle 5" width="101.58" height="9.05" transform="translate(417.08 72.08)" fill="url(#linear-gradient)"/>
    <rect id="Rectangle_6" data-name="Rectangle 6" width="101.58" height="9.05" transform="translate(417.08 88.17)" fill="url(#linear-gradient)"/>
    <rect id="Rectangle_7" data-name="Rectangle 7" width="68.39" height="9.05" transform="translate(417.08 104.26)" fill="url(#linear-gradient-3)"/>
    <rect id="Rectangle_8" data-name="Rectangle 8" width="202.74" height="95.13" transform="translate(469.94 331.98)" fill="url(#linear-gradient-4)"/>
    <rect id="Rectangle_9" data-name="Rectangle 9" width="103.44" height="10.44" transform="translate(496.25 346.29)" fill="#ffe1ab"/>
    <rect id="Rectangle_10" data-name="Rectangle 10" width="78.89" height="10.44" transform="translate(496.25 364.85)" fill="#ffe1ab"/>
    <rect id="Rectangle_11" data-name="Rectangle 11" width="53.2" height="10.44" transform="translate(496.25 383.42)" fill="#ffe1ab"/>
    <rect id="Rectangle_12" data-name="Rectangle 12" width="31.71" height="10.44" transform="translate(556.02 383.42)" fill="#f7634b"/>
    <rect id="Rectangle_13" data-name="Rectangle 13" width="71.92" height="10.44" transform="translate(496.25 401.98)" fill="#ffe1ab"/>
    <rect id="Rectangle_14" data-name="Rectangle 14" width="76.61" height="76.61" transform="translate(558.86)" fill="#ffd180" opacity="0.7"/>
    <path id="Path_1" data-name="Path 1" d="M621.18,38.51a24,24,0,1,1-24-24A24,24,0,0,1,621.18,38.51Z" fill="#f7634b" opacity="0.6"/>
    <path id="Path_2" data-name="Path 2" d="M615.36,38.5a18.14,18.14,0,0,1-7.42,14.66,17.52,17.52,0,0,1-4.4,2.39,18.447,18.447,0,0,1-2.19.67c-.45.1-.9.19-1.36.26a17.529,17.529,0,0,1-2.83.23,18.531,18.531,0,0,1-5.4-.82,18.19,18.19,0,0,1-4.67-32.53,16.872,16.872,0,0,1,2-1.15,18.078,18.078,0,0,1,4.75-1.59,18.551,18.551,0,0,1,3.35-.31A18,18,0,0,1,615.36,38.5Z" fill="#eff4f4"/>
    <path id="Path_3" data-name="Path 3" d="M605,33.59a2.1,2.1,0,0,0-2.9-.66l-2.83,1.77V26.85a2.1,2.1,0,0,0-4.2,0V38.51a1.111,1.111,0,0,0,0,.16,2.992,2.992,0,0,0,.08.41,2.269,2.269,0,0,0,.15.39.182.182,0,0,0,.06.16c.06.05.09.07.13.11a1.83,1.83,0,0,0,.51.49c.08.05.14.11.22.15a2.05,2.05,0,0,0,.92.23h0a2.06,2.06,0,0,0,.72-.15l.19-.08a1.214,1.214,0,0,0,.2-.09l6.05-3.8a2.1,2.1,0,0,0,.7-2.9Z" fill="url(#linear-gradient-5)"/>
    <rect id="Rectangle_15" data-name="Rectangle 15" width="171.91" height="171.91" transform="translate(677.65 145.36)" fill="#ffd180"/>
    <path id="Path_4" data-name="Path 4" d="M763.6,239.07h0a21.89,21.89,0,0,1-21.89-21.89V204a21.9,21.9,0,0,1,21.89-21.9h0A21.9,21.9,0,0,1,785.5,204v13.14a21.89,21.89,0,0,1-21.9,21.93Z" fill="#f8fffb"/>
    <path id="Path_5" data-name="Path 5" d="M763.6,227.82a51.653,51.653,0,0,0-46.713,29.6A15.43,15.43,0,0,0,730.78,279.47h65.65a15.43,15.43,0,0,0,13.89-22.06,51.65,51.65,0,0,0-46.72-29.59Z" fill="#f8fffb"/>
    <rect id="Rectangle_16" data-name="Rectangle 16" width="50.41" height="113.61" transform="translate(703.18 108.94) rotate(90)" fill="#f7634b" opacity="0.6"/>
    <rect id="Rectangle_17" data-name="Rectangle 17" width="50.41" height="113.61" transform="translate(633.86 237.31) rotate(90)" fill="#f7634b" opacity="0.6"/>
    <rect id="Rectangle_18" data-name="Rectangle 18" width="50.41" height="113.6" transform="translate(668.52 173.13) rotate(90)" fill="#f7634b" opacity="0.6"/>
    <g id="Group_1" data-name="Group 1" opacity="0.3">
      <rect id="Rectangle_19" data-name="Rectangle 19" width="2.95" height="91.73" transform="matrix(0.406, -0.914, 0.914, 0.406, 569.229, 181.111)" fill="#f7634b"/>
      <rect id="Rectangle_20" data-name="Rectangle 20" width="91.73" height="2.95" transform="translate(569.186 215.601) rotate(-23.88)" fill="#f7634b"/>
    </g>
    <path id="Path_6" data-name="Path 6" d="M682.72,42.7c-53.94-9.9-79.76,84-21,91.92,57.26,7.7,69.63-91.74,10.93-86.13-7.6.73-7.68,12.71,0,12,41.5-4,32,64.49-6.76,62.58-45-2.23-25.72-76,13.61-68.8,7.53,1.39,10.76-10.15,3.18-11.55Z" fill="#f7634b"/>
    <path id="Path_7" data-name="Path 7" d="M593.31,93.75c-48.6,1.52-98.82,20.19-131,57.9-22.31,26.12-43.93,82.11-.22,99.12,7.19,2.8,10.31-8.78,3.19-11.55-28.05-10.91-15.32-47.45-4.05-65.95,8.75-14.36,21.27-26.54,34.93-36.21,28.54-20.18,62.44-30.25,97.17-31.34,7.69-.23,7.72-12.21,0-12Z" fill="#f7634b"/>
    <path id="Path_8" data-name="Path 8" d="M471.77,222.33l10.26,12c2.69,3.16,8.39,7.57,9.21,11.7q.76-2.93,1.54-5.83c-4.23,3.76-11.49,6.14-16.49,8.81l-16.89,9c-6.8,3.63-.76,14,6,10.34L490,255.27c4.25-2.28,12-4.44,12.88-10,.79-4.73-3.5-8.86-6.24-12.16-5.38-6.49-10.94-12.82-16.41-19.23-5-5.87-13.46,2.64-8.47,8.47Z" fill="#f7634b"/>
    <path id="Path_9" data-name="Path 9" d="M705,390.5c26.62,6.52,67.31-8.56,74.22-37.61,1.79-7.49-9.76-10.69-11.55-3.18-5.32,22.37-39.25,34.2-59.49,29.23-7.48-1.83-10.68,9.72-3.18,11.56Z" fill="#f7634b"/>
    <path id="Path_10" data-name="Path 10" d="M750.4,355.22c10.08-8.08,20-16.36,30.48-23.88l-8.2-2.15a209.138,209.138,0,0,1,15.58,26.65c3.48,6.88,13.81.82,10.34-6a208.756,208.756,0,0,0-15.6-26.7c-1.74-2.44-5.37-4.16-8.19-2.15-11.33,8.13-22,17.05-32.9,25.76-6,4.82,2.51,13.25,8.47,8.47Z" fill="#f7634b"/>
    <rect id="Rectangle_21" data-name="Rectangle 21" width="66.36" height="66.36" transform="translate(643.28 411.62)" fill="#95efc6"/>
    <path id="Path_11" data-name="Path 11" d="M676.46,447.79h0a8.45,8.45,0,0,1-8.46-8.45v-5.07a8.45,8.45,0,0,1,8.46-8.45h0a8.45,8.45,0,0,1,8.45,8.45v5.07A8.45,8.45,0,0,1,676.46,447.79Z" fill="#f8fffb"/>
    <path id="Path_12" data-name="Path 12" d="M676.46,443.45a20,20,0,0,0-18,11.42,6,6,0,0,0,5.36,8.51h25.35a6,6,0,0,0,5.36-8.51A19.94,19.94,0,0,0,676.46,443.45Z" fill="#f8fffb"/>
  </g>
</svg>
