<svg xmlns="http://www.w3.org/2000/svg" xmlns:xlink="http://www.w3.org/1999/xlink" width="457.12" height="594.766" viewBox="0 0 457.12 594.766">
  <defs>
    <linearGradient id="linear-gradient" x1="6.613" y1="1.168" x2="7.772" y2="-0.048" gradientUnits="objectBoundingBox">
      <stop offset="0" stop-color="#008161"/>
      <stop offset="1" stop-color="#9fff31"/>
    </linearGradient>
    <linearGradient id="linear-gradient-2" x1="2.415" y1="1.666" x2="3.698" y2="0.604" xlink:href="#linear-gradient"/>
    <linearGradient id="linear-gradient-3" x1="-3.556" y1="0.565" x2="-2.159" y2="-0.431" xlink:href="#linear-gradient"/>
    <linearGradient id="linear-gradient-4" x1="-8.344" y1="-2.705" x2="-7.049" y2="-3.806" xlink:href="#linear-gradient"/>
    <linearGradient id="linear-gradient-5" x1="1.162" y1="1.496" x2="0.332" y2="0.412" xlink:href="#linear-gradient"/>
    <linearGradient id="linear-gradient-6" x1="1.278" y1="0.9" x2="3.354" y2="0.079" xlink:href="#linear-gradient"/>
    <linearGradient id="linear-gradient-7" x1="-0.964" y1="0.768" x2="0.264" y2="-0.354" xlink:href="#linear-gradient"/>
    <linearGradient id="linear-gradient-8" x1="1.881" y1="0.919" x2="-0.102" y2="0.083" xlink:href="#linear-gradient"/>
    <linearGradient id="linear-gradient-9" x1="1.234" y1="1.096" x2="2.484" y2="0.002" xlink:href="#linear-gradient"/>
    <linearGradient id="linear-gradient-10" x1="1.491" y1="0.941" x2="3.299" y2="0.055" xlink:href="#linear-gradient"/>
    <linearGradient id="linear-gradient-11" x1="2.507" y1="0.807" x2="3.64" y2="-0.446" xlink:href="#linear-gradient"/>
    <linearGradient id="linear-gradient-12" x1="1.505" y1="0.877" x2="2.874" y2="0.11" xlink:href="#linear-gradient"/>
    <linearGradient id="linear-gradient-13" x1="4.493" y1="1.962" x2="4.829" y2="-0.781" xlink:href="#linear-gradient"/>
    <linearGradient id="linear-gradient-14" x1="5.669" y1="1.51" x2="5.932" y2="-0.457" xlink:href="#linear-gradient"/>
    <linearGradient id="linear-gradient-15" x1="8.956" y1="0.998" x2="8.963" y2="-0.072" xlink:href="#linear-gradient"/>
    <linearGradient id="linear-gradient-16" x1="28.113" y1="0.957" x2="29.046" y2="-0.021" xlink:href="#linear-gradient"/>
    <linearGradient id="linear-gradient-17" x1="1.805" y1="0.081" x2="1.805" y2="0.9" gradientUnits="objectBoundingBox">
      <stop offset="0" stop-color="#f70f47"/>
      <stop offset="1" stop-color="#9e005d"/>
    </linearGradient>
    <linearGradient id="linear-gradient-18" x1="1.615" y1="1.503" x2="1.615" y2="0.022" xlink:href="#linear-gradient-17"/>
    <linearGradient id="linear-gradient-19" x1="2.669" y1="1.306" x2="-0.081" y2="0.315" gradientUnits="objectBoundingBox">
      <stop offset="0" stop-color="#2c27ce"/>
      <stop offset="0.65" stop-color="#ef1d68"/>
      <stop offset="1" stop-color="#efba92"/>
    </linearGradient>
    <linearGradient id="linear-gradient-20" x1="-0.315" y1="0.879" x2="-0.843" y2="3.03" xlink:href="#linear-gradient-17"/>
    <linearGradient id="linear-gradient-21" x1="0.383" y1="-0.022" x2="-0.595" y2="2.169" xlink:href="#linear-gradient-17"/>
    <linearGradient id="linear-gradient-22" x1="0.449" y1="0.189" x2="0.636" y2="1.103" xlink:href="#linear-gradient-17"/>
    <linearGradient id="linear-gradient-23" x1="0.732" y1="-0.558" x2="-0.058" y2="3.325" gradientUnits="objectBoundingBox">
      <stop offset="0" stop-color="#36078b"/>
      <stop offset="1" stop-color="#168d68"/>
    </linearGradient>
    <linearGradient id="linear-gradient-24" x1="2.787" y1="-1.2" x2="1.502" y2="0.155" xlink:href="#linear-gradient-23"/>
    <linearGradient id="linear-gradient-25" x1="1.162" y1="-0.21" x2="-0.111" y2="0.961" xlink:href="#linear-gradient-23"/>
    <linearGradient id="linear-gradient-26" x1="2.849" y1="-0.88" x2="0.696" y2="0.383" gradientUnits="objectBoundingBox">
      <stop offset="0" stop-color="#36078b"/>
      <stop offset="0.41" stop-color="#293e7d"/>
      <stop offset="1" stop-color="#168d68"/>
    </linearGradient>
    <linearGradient id="linear-gradient-27" x1="1.272" y1="-0.105" x2="-0.104" y2="1.072" xlink:href="#linear-gradient-23"/>
    <linearGradient id="linear-gradient-28" x1="0.36" y1="4.43" x2="0.547" y2="-0.436" xlink:href="#linear-gradient-19"/>
    <linearGradient id="linear-gradient-29" x1="0.306" y1="4.518" x2="0.561" y2="-0.461" xlink:href="#linear-gradient-19"/>
    <linearGradient id="linear-gradient-30" x1="1.728" y1="2.431" x2="0.239" y2="0.207" xlink:href="#linear-gradient-19"/>
    <linearGradient id="linear-gradient-31" x1="3.533" y1="3.08" x2="-0.382" y2="-0.349" xlink:href="#linear-gradient-19"/>
    <linearGradient id="linear-gradient-32" x1="0.66" y1="0.841" x2="0.66" y2="-0.484" gradientUnits="objectBoundingBox">
      <stop offset="0" stop-color="#2c27ce"/>
      <stop offset="1" stop-color="#ef1d68"/>
    </linearGradient>
    <linearGradient id="linear-gradient-33" x1="0.714" y1="1.403" x2="0.714" y2="-0.666" gradientUnits="objectBoundingBox">
      <stop offset="0" stop-color="#2ca6ef"/>
      <stop offset="1" stop-color="#b1ffff"/>
    </linearGradient>
    <linearGradient id="linear-gradient-34" x1="1.654" y1="-0.343" x2="0.828" y2="1.424" xlink:href="#linear-gradient-17"/>
    <linearGradient id="linear-gradient-35" x1="1.722" y1="-2.223" x2="1.113" y2="-0.107" xlink:href="#linear-gradient-17"/>
    <clipPath id="clip-path">
      <path id="Path_84" data-name="Path 84" d="M499.36,324l-77.5-108.1c1.86-2,2.87-3.3,2.7-5.38a6.44,6.44,0,0,0-1.57-3.36,10.829,10.829,0,0,0-.68-2.29c-1.44-3.34-8.34-6.73-10.75-6.93a2.49,2.49,0,0,0-2.07.7L394.76,178.1a10.47,10.47,0,0,0-14.59-2.38l-20.72,14.86-31.77,22.79a26.38,26.38,0,0,0-7.23-3.06,47.91,47.91,0,0,0-7.74-1.08l-5.13-.43c-.05-1.92-.07-3.77-.08-5.51a34.661,34.661,0,0,0,5.49.48c8.4,0,14.63-8.87,16.53-15.81,1.67-6.12,3.57-19.24,2.65-34.07,1.66,4,2.35-10.62-1.38-17.32-2-3.57-8.15-9-13.08-10.77a30.17,30.17,0,0,0-21-3.77c0-7.39-6.53-15.72-18.66-16.72-18.13-1.5-50.31,9-33,51.21,18,44,12.35,55.21.25,61.8,0,0,11.9,1,22.48-3.74a15.191,15.191,0,0,0-2.88,3.11c-4.23,3.91-10.25,9.75-20.82,22.15-21.05,24.71-27.74,37-30.09,42.91a5.45,5.45,0,0,0,.05,4.05,10.13,10.13,0,0,0,3,6L102.27,375a10.44,10.44,0,0,0-2.4,14.57L204.48,535.46a10.44,10.44,0,0,0,14.56,2.4l44.32-31.79c-.79,9.33-1.47,16.68-2,20.4-.12.86-.2,1.68-.27,2.5C245,557.11,238,652.47,235.81,670.42c-.12,1,0,1.51.36,1.78a12.29,12.29,0,0,0-2,5.53c-.91,7.68-.86,8.1,5.94,8.15,5.17,0,5.86,4.8,10.24,5.5s13,2.2,20.43-.27-5.94-3.8-12.23-6.61c-5.57-2.48-7-9.76-7.89-12.68,6.62-25,28.13-101.28,38.62-127a31.669,31.669,0,0,0,2.47-10.52c4.61-16.25,10.67-39.22,15.58-59.78l12.87-9.23c4.43,24.78,10.15,54.92,14.62,71.75-8.56,34.31,7.57,104.29,8.59,144.64v-.05a6.843,6.843,0,0,1-.14.74c-.91,7.68-.86,8.1,5.94,8.14a88.81,88.81,0,0,1,13.79.83c4.37.71,13,2.2,20.42-.27s-5.93-3.8-12.22-6.61-10.83-7.08-11.78-8.93a5.451,5.451,0,0,0-1-1.37c-.5-53.67,5.37-107.1,6.53-134.85a35.693,35.693,0,0,0-.1-4.68,64,64,0,0,0-.11-8.34c-.87-11.52-2.71-57.79-4-90.05l31-22.24a4.36,4.36,0,0,0,5,0l36.31-26a4.38,4.38,0,0,0,1.64-4.76l41.51-29.77,20.71-14.86A10.45,10.45,0,0,0,499.36,324ZM248.47,668.86a6.222,6.222,0,0,0-1.3-.69,3.46,3.46,0,0,1,1.3.69Zm35.24-479.38a31.569,31.569,0,0,0,4,4.36c-.26,4.4-.52,9.49-.71,14.52a45.65,45.65,0,0,0-13.29,2.75c5.65-4.27,9.92-11.02,10-21.63Zm-15.36,61.64c.54,1.21,1.06,2.44,1.59,3.66l-17.86,12.81c4.84-4.9,10.31-10.41,16.27-16.47Z" fill="none"/>
    </clipPath>
    <linearGradient id="linear-gradient-36" x1="-1.47" y1="0.808" x2="-0.078" y2="1.272" gradientUnits="objectBoundingBox">
      <stop offset="0" stop-color="blue"/>
      <stop offset="1" stop-color="#9e005d"/>
    </linearGradient>
  </defs>
  <g id="girl" transform="translate(-44.195 -105.174)">
    <path id="Path_13" data-name="Path 13" d="M268.33,634c0,2.12-22.54,3.83-50.35,3.83s-50.36-1.71-50.36-3.83,22.55-3.83,50.36-3.83S268.33,631.85,268.33,634Z" fill="#d8d8d8"/>
    <path id="Path_14" data-name="Path 14" d="M205.68,562.75c12.47-7.94-3.49-32.23-32.51-34.58,0,0-3.1,12.78-.25,24.14C175.35,562,188.22,573.86,205.68,562.75Z" fill="url(#linear-gradient)"/>
    <path id="Path_15" data-name="Path 15" d="M222.41,564.69c14.51-2.82,8.54-31.26-17.6-44.08,0,0-7.56,10.76-9.07,22.37C194.45,552.89,202.09,568.64,222.41,564.69Z" fill="url(#linear-gradient-2)"/>
    <path id="Path_16" data-name="Path 16" d="M232.55,566.63c12.88,3.61,19.6-21.83,3.65-42.8,0,0-10.49,5.63-16.42,14.41C214.71,545.74,214.51,561.58,232.55,566.63Z" fill="url(#linear-gradient-3)"/>
    <path id="Path_17" data-name="Path 17" d="M238.15,563.38c9,8,24.43-9.91,19.81-33.13,0,0-10.69.43-18.94,5.18C232,539.49,225.57,552.2,238.15,563.38Z" fill="url(#linear-gradient-4)"/>
    <path id="Path_18" data-name="Path 18" d="M264.13,503.52c49.35-19.36,9.88-115.85-90.67-144.11,0,0-19.7,42.86-17.51,84.82C157.83,480,195,530.63,264.13,503.52Z" fill="url(#linear-gradient-5)"/>
    <path id="Path_19" data-name="Path 19" d="M183.49,371.59a89.44,89.44,0,0,1,23,24.25,66.7,66.7,0,0,1,4.47,7,79.675,79.675,0,0,1,4.11,7.18c1.16,2.51,2.4,5,3.62,7.44l1.82,3.69L222,425a212.748,212.748,0,0,1,9.74,31.58c1,5.45,2.21,10.85,3.33,16.27l1.93,16.6c.33,2.76.87,5.49,1,8.28l.42,8.37c.31,5.58.52,11.17.91,16.76-.16,11.22,0,22.47-.33,33.76-.31,5.64-.73,11.28-.94,17l-.34,8.51-.17,4.27-.41,4.24-1.36,17.06-.67,8.56-.42,8.64.8.16,5.95-33.79.73-4.23.47-4.26.94-8.53,1.88-17.06.45-4.27.17-4.29.33-8.58.67-17.16-.65-17.17-.32-8.58c-.12-2.86-.64-5.7-.94-8.54l-2.23-17.05-3.71-16.79a189.632,189.632,0,0,0-11.37-32.41l-1.72-3.95-2.09-3.75-4.22-7.51c-1.35-2.53-3.21-4.75-4.79-7.14a66.667,66.667,0,0,0-5.17-6.87c-7.18-8.93-15.78-16.88-26.05-22.25Z" fill="url(#linear-gradient-6)"/>
    <path id="Path_20" data-name="Path 20" d="M233,456.18c-37.57-14.74-7.52-88.19,69-109.7,0,0,15,32.63,13.33,64.57C313.87,438.3,285.57,476.82,233,456.18Z" fill="url(#linear-gradient-7)"/>
    <path id="Path_21" data-name="Path 21" d="M294,355.27c-7.78,9-14,19.1-20.29,29.2-2.93,5.16-5.81,10.35-8.42,15.68l-4,8-3.71,8.1c-9.85,21.66-17.22,44.37-23,67.43-1.33,5.8-2.45,11.63-3.69,17.45L229,509.82l-1.35,8.81-2.48,17.64c-.59,5.91-1,11.84-1.43,17.75l-.64,8.87c-.13,3-.14,5.93-.21,8.89l-.33,17.75c-.06,5.92.58,11.84.84,17.74s.74,11.79,1.26,17.66h.63c.22-11.75,0-23.51.57-35.25l1.14-17.6c.2-2.93.33-5.87.59-8.79l1-8.76,2-17.51,2.86-17.39,1.45-8.69,1.85-8.61c1.27-5.74,2.43-11.5,3.8-17.21a489.493,489.493,0,0,1,21.47-67.06c8.88-21.71,19.16-43,32.42-62.41Z" fill="url(#linear-gradient-8)"/>
    <path id="Path_22" data-name="Path 22" d="M212.3,413.3c71-21.75,26.16-160.64-111.15-210.82,0,0-32.08,57.72-33.49,116.52C66.45,369.17,112.94,443.75,212.3,413.3Z" fill="url(#linear-gradient-9)"/>
    <path id="Path_23" data-name="Path 23" d="M113.76,220.37c2.61,3.61,5.09,7.33,7.43,11.12,2.49,3.68,4.8,7.49,7.09,11.29s4.52,7.63,6.64,11.54,4.39,7.68,6.27,11.71c4,7.89,8.25,15.63,11.78,23.75,1.82,4,3.74,8,5.64,12l5.1,12.21,5.08,12.18,4.59,12.39L178,350.88c1.55,4.12,2.67,8.39,4,12.57s2.69,8.37,4,12.55l2,6.27c.63,2.1,1.13,4.25,1.71,6.37l6.71,25.51c2,8.55,3.72,17.18,5.61,25.78.88,4.31,1.93,8.59,2.67,12.93s1.27,8.71,2,13.05c1.37,8.7,3,17.38,4.16,26.12.81,8.78,1.79,17.55,2.8,26.33l1.5,13.19.7,13.25,1.65,26.57c1.07,17.76.39,35.54,1.42,53.52l1,.08,1.57-26.75.78-13.38c.28-4.46.59-8.92.43-13.39l-.21-26.81-.12-13.41-1-13.37-2-26.74c-1-8.88-2.39-17.72-3.56-26.58l-1.85-13.28c-.7-4.42-1.73-8.77-2.58-13.16-1.83-8.75-3.48-17.55-5.46-26.26A571,571,0,0,0,170.75,310.7c-15.13-32.35-33.06-63.65-56.27-91Z" fill="url(#linear-gradient-10)"/>
    <path id="Path_24" data-name="Path 24" d="M172,477.89c43.38-31.4-19.59-115.79-125.06-118,0,0-8.45,46.9,4.3,87.37C62.08,481.76,111.22,521.85,172,477.89Z" fill="url(#linear-gradient-11)"/>
    <path id="Path_25" data-name="Path 25" d="M59.71,369.14a220.742,220.742,0,0,1,29.82,24.13l7,6.51,6.64,6.85c4.52,4.47,8.58,9.38,12.71,14.2a429.311,429.311,0,0,1,43.42,62.29l9.14,16.69a90.008,90.008,0,0,1,4.25,8.51l4,8.64,4.13,8.59c.68,1.44,1.41,2.86,2,4.32l1.76,4.43c2.31,5.93,4.79,11.81,7.3,17.68,2.67,5.82,4.57,11.92,6.69,18l6.3,18.16c4.06,12.18,7.28,24.61,11.53,36.9l.69-.14c-2.88-12.57-5.52-25.2-8.61-37.73L203,568.61c-1.86-6.17-3.51-12.42-5.93-18.41L190.41,532l-1.68-4.54c-.61-1.49-1.31-3-2-4.42l-4-8.83-4-8.83a93.161,93.161,0,0,0-4.24-8.7l-9.14-17.08c-13-22.29-28-43.5-45.5-62.51-4.42-4.7-8.76-9.49-13.56-13.82l-7-6.64-7.4-6.25C82,382.21,71.49,374.53,60,368.5Z" fill="url(#linear-gradient-12)"/>
    <path id="Path_26" data-name="Path 26" d="M159.19,347.54a65.459,65.459,0,0,0-16.63-8.91c-2.87-1.21-5.86-2-8.82-2.93s-6-1.41-9-2.08a95.459,95.459,0,0,0-18.61-1.44,54.591,54.591,0,0,0-18.68,3.47v.66c12.12-.12,24.19,1.52,36.1,3.75A350.665,350.665,0,0,1,159,348.17Z" fill="url(#linear-gradient-13)"/>
    <path id="Path_27" data-name="Path 27" d="M147.85,307.74a48.63,48.63,0,0,0-12.46-9.91,70.541,70.541,0,0,0-6.91-3.57c-2.37-1-4.82-1.89-7.24-2.8a71.829,71.829,0,0,0-15.32-3.12,41.44,41.44,0,0,0-16,1.44l-.07.66a155.421,155.421,0,0,1,29.35,7.24,293.452,293.452,0,0,1,28.37,10.66Z" fill="url(#linear-gradient-14)"/>
    <path id="Path_28" data-name="Path 28" d="M197.63,339a51.149,51.149,0,0,0,4.83-9.33c1.22-3,2.32-5.88,3.27-8.66.35-1.46,1-2.75,1.4-4.13l.7-2a17.71,17.71,0,0,0,.76-2,45.33,45.33,0,0,1,4.44-8.51l-.22-.56a18.739,18.739,0,0,0-8,6.21,32.19,32.19,0,0,0-4.72,9,61.36,61.36,0,0,0-3,20Z" fill="url(#linear-gradient-15)"/>
    <path id="Path_29" data-name="Path 29" d="M174.29,295.59a37.838,37.838,0,0,0,2-7.86c.42-2.48.59-4.86.85-7.15.11-2.31.34-4.52.58-6.69a28.441,28.441,0,0,1,1.67-7.15l-.26-.38a14.12,14.12,0,0,0-4.73,6.2,25.78,25.78,0,0,0-1.78,7.63,56,56,0,0,0,1.27,15.5Z" fill="url(#linear-gradient-16)"/>
    <path id="Path_30" data-name="Path 30" d="M183.41,634h61a6,6,0,0,0,5.94-5.27l8.4-70.71a6,6,0,0,0-5.93-6.69H175a6,6,0,0,0-5.94,6.69l8.41,70.71A6,6,0,0,0,183.41,634Z" fill="url(#linear-gradient-17)"/>
    <path id="Path_31" data-name="Path 31" d="M167.12,565.31H260.7a3.94,3.94,0,0,0,3.9-3.35l1.84-12a4,4,0,0,0-3.9-4.54H165.28a3.94,3.94,0,0,0-3.9,4.54l1.84,12A3.94,3.94,0,0,0,167.12,565.31Z" fill="url(#linear-gradient-18)"/>
    <path id="Path_55" data-name="Path 55" d="M417.89,692.48c0,4.12-43.95,7.46-98.17,7.46s-98.18-3.34-98.18-7.46,44-7.47,98.18-7.47S417.89,688.36,417.89,692.48Z" fill="#d8d8d8"/>
    <path id="Path_56" data-name="Path 56" d="M294.71,128.4c5.58-7.88-.81-21.78-16.7-23.09-18.13-1.5-50.31,9-33,51.21,18,44,12.35,55.21.25,61.8,0,0,41.51,3.33,38.34-32.94S281.73,146.7,294.71,128.4Z" fill="url(#linear-gradient-19)"/>
    <path id="Path_57" data-name="Path 57" d="M378,265.77c-6.23-1-19.71-4.95-48.35-20.23-17.47-9.32-24.08-14.2-28.92-17.58-8.62-6-5.7-14.55-.22-16.4,8.83-3,21-.9,25.79,2.06,26.91,16.71,46.75,30,54.19,33.22C391.29,251.55,385.34,267,378,265.77Z" fill="url(#linear-gradient-20)"/>
    <path id="Path_58" data-name="Path 58" d="M424.56,210.52c.39,4.66-5.15,5.5-12.81,18.29-11,18.42-15,22.81-26.43,34.09-7.44,7.36-21-.34-13.79-10.83,6.09-8.87,40.84-40.84,44.53-46.24C418.5,202.25,424.24,206.74,424.56,210.52Z" fill="url(#linear-gradient-21)"/>
    <path id="Path_59" data-name="Path 59" d="M288.52,181.13c-.1.9-1.53,20.12-1.79,34.87-.12,7.22,5.1,14.09,10.3,14.26h.23c5.1,0,11.11-6.41,10.66-13.51a260.31,260.31,0,0,1-.18-26.18Z" fill="#ea8f68"/>
    <path id="Path_60" data-name="Path 60" d="M273.59,264.18c4.49,13.06,7,26.76,9.22,40.36,1.67,10,1.24,20.38-.12,30.38-.82,6.07-2,12.08-3.39,18-.52,2.26-5,20.48-5.17,22.42h83.18c-.8-16.29-19.36-67.49-6.8-100.63,8.7-23-2.85-23.67-10.69-42.78-1.92-4.68-3.47-9.82-6.65-13.85a23.85,23.85,0,0,0-12.72-7.81,47.909,47.909,0,0,0-7.74-1.08c-14.07-1.1-47.21-5.19-50.33,14.81A35.5,35.5,0,0,0,264,240.23c1.86,5.84,4.64,11.34,7,17Q272.395,260.68,273.59,264.18Z" fill="url(#linear-gradient-22)"/>
    <path id="Path_61" data-name="Path 61" d="M274.47,428.19s-7.18-18.12-.34-52.81h83.18a510,510,0,0,1,3,52.81Z" fill="url(#linear-gradient-23)"/>
    <path id="Path_62" data-name="Path 62" d="M289.25,544.86c10.92-26.74-15.64-35.89-27.41-17.15-16.63,26.5-23.86,124.49-26,142.71-.29,2.39,1,2.14,2.42,1.87,4.11-.8,2.37-4.64,8.24-4.28,3.1.19,4,4.45,4,4.45C256.89,648.16,278.68,570.75,289.25,544.86Z" fill="url(#linear-gradient-24)"/>
    <path id="Path_63" data-name="Path 63" d="M315.75,432c2.92-34.91-10.4-62-31.27-50.49-8.78,4.85-12,14.55-13.17,23.69s-7.65,104.12-9.91,121.29c-5.11,38.69,24.34,28.26,27.53,17.53C297,516.94,314.16,451,315.75,432Z" fill="url(#linear-gradient-25)"/>
    <path id="Path_64" data-name="Path 64" d="M364.91,539.35c1.1-26.2-23.49-25.64-29.66-4.32-9.72,33.54,7.09,105.56,8.13,146.69,4.29-7.11,8.33-8.83,10.24-8.69a6.83,6.83,0,0,1,4.77,2.69C357.76,621.54,363.74,567.36,364.91,539.35Z" fill="url(#linear-gradient-26)"/>
    <path id="Path_65" data-name="Path 65" d="M336.24,542.19c3.26,10.7,31.39,23.07,28.46-15.86-1.31-17.27-4.78-112.63-5.45-121.82s-2.2-22.62-6.65-24.3c-22.21-8.38-43.76,19-37.91,53.55C318.59,456.83,329.46,520,336.24,542.19Z" fill="url(#linear-gradient-27)"/>
    <path id="Path_66" data-name="Path 66" d="M278.51,167.21c1.63,16.41,2.12,20,9.28,26.76s17.42,9.8,25.2,9.8c8.4,0,14.63-8.87,16.53-15.81,2-7.19,4.26-24.06,1.9-42-1.19-9.11-12.44-20.16-24-20.16S274.5,127.12,278.51,167.21Z" fill="#ffaf84"/>
    <path id="Path_67" data-name="Path 67" d="M359.42,675.57c.95,1.85,5.49,6.12,11.78,8.93s19.64,4.13,12.22,6.61-16.05,1-20.42.27a88.8,88.8,0,0,0-13.79-.83c-6.8,0-6.85-.46-5.94-8.14C344.53,671.84,356.35,669.61,359.42,675.57Z" fill="url(#linear-gradient-28)"/>
    <path id="Path_68" data-name="Path 68" d="M250.29,670.9c1,1.85,1.94,10.79,8.23,13.6s19.64,4.13,12.23,6.61-16.05,1-20.43.27-5.07-5.47-10.23-5.5c-6.81,0-6.86-.47-6-8.15C235.4,667.17,247.22,664.93,250.29,670.9Z" fill="url(#linear-gradient-29)"/>
    <path id="Path_69" data-name="Path 69" d="M328.67,137.35c6.42,11-40.28,31.1-50.66,29.37s-10.29-23.76-2.27-33.83S313.51,111.45,328.67,137.35Z" fill="url(#linear-gradient-30)"/>
    <path id="Path_70" data-name="Path 70" d="M311.34,134.59c1.69,9.28,18,11.41,20.74,19.1,1.72,4.77,2.52-10.29-1.29-17.12S308,115.92,311.34,134.59Z" fill="url(#linear-gradient-31)"/>
    <path id="Path_71" data-name="Path 71" d="M283.4,167.42c2.32,5.67,1.78,11.26-1.19,12.48s-7.26-2.41-9.58-8.09-1.79-11.26,1.18-12.47S281.08,161.74,283.4,167.42Z" fill="#ffaf84"/>
    <g id="Group_3" data-name="Group 3" opacity="0.7">
      <path id="Path_72" data-name="Path 72" d="M434.72,383.17l41.51-29.77,20.71-14.86A10.45,10.45,0,0,0,499.36,324L394.76,178.1a10.47,10.47,0,0,0-14.59-2.38l-20.72,14.86L102.27,375a10.44,10.44,0,0,0-2.4,14.57L204.48,535.46a10.44,10.44,0,0,0,14.56,2.4L391.74,414a4.36,4.36,0,0,0,5,0l36.31-26A4.38,4.38,0,0,0,434.72,383.17Z" fill="url(#linear-gradient-32)"/>
      <path id="Path_73" data-name="Path 73" d="M159.47,457.3h0a9.82,9.82,0,0,1,2.25-13.7h0a9.82,9.82,0,0,1,13.7,2.25h0a9.83,9.83,0,0,1-2.25,13.71h0a9.81,9.81,0,0,1-13.7-2.26Z" fill="#e3fff0"/>
      <path id="Path_74" data-name="Path 74" d="M408.32,234.18h0a4,4,0,0,1,.92-5.56h0a4,4,0,0,1,5.56.92h0a4,4,0,0,1-.91,5.56h0A4,4,0,0,1,408.32,234.18Z" fill="#e3fff0"/>
      <path id="Path_75" data-name="Path 75" d="M443.24,278.56,420.11,246.3a1.47,1.47,0,0,1,2.39-1.71l23.13,32.25a1.472,1.472,0,1,1-2.39,1.72Z" fill="#e3fff0"/>
      <rect id="Rectangle_22" data-name="Rectangle 22" width="287.87" height="192.92" transform="translate(127.688 361.379) rotate(-35.65)" fill="url(#linear-gradient-33)"/>
      <path id="Path_76" data-name="Path 76" d="M440.08,303,252.21,272.07l58.81-42.18,86.88,14.3Z" fill="#f5feff" opacity="0.3"/>
      <path id="Path_77" data-name="Path 77" d="M469.45,343.96,211.27,301.43l29.41-21.09,207.68,34.22Z" fill="#f5feff" opacity="0.3"/>
    </g>
    <path id="Path_78" data-name="Path 78" d="M280.39,317.13c5-.16,10.95.44,14.06,2.27s-4.64,2.08-8.38,2.47S276.21,317.27,280.39,317.13Z" fill="#ffaf84"/>
    <path id="Path_79" data-name="Path 79" d="M284.78,320.27c9.12,4.71,14.74,5.72,17.45,9.9s-6.56,5.43-10,4.27-15.93-4.55-17.44-8.58S278.05,316.79,284.78,320.27Z" fill="#ffaf84"/>
    <path id="Path_80" data-name="Path 80" d="M213.91,282.75c2.35-5.87,9-18.2,30.09-42.91,12.84-15.08,19-20.5,23.36-24.5,7.72-7.13,15.43-2.45,16.06,3.29,1,9.26-3.61,20.74-7.52,24.76-22.07,22.71-39.3,39.26-44,45.83C225,298.82,211.12,289.7,213.91,282.75Z" fill="url(#linear-gradient-34)"/>
    <path id="Path_81" data-name="Path 81" d="M277.86,326.11c-4.73,1.11-6.44-4.46-20.76-10.39-20.63-8.54-25.75-12-39.09-22-8.71-6.53-2.85-21.64,9-15.83,10,4.91,48.22,35.77,54.34,38.74C285.44,318.61,281.7,325.2,277.86,326.11Z" fill="url(#linear-gradient-35)"/>
    <path id="Path_82" data-name="Path 82" d="M415.42,212.2a35.73,35.73,0,0,1-6.43-9.35c-.95-2.21-.18-5.14,2.57-4.91,2.41.2,9.31,3.59,10.75,6.93a12.36,12.36,0,0,1,0,9.13C421.24,216.54,418.57,215.66,415.42,212.2Z" fill="#ffaf84"/>
    <g id="Group_4" data-name="Group 4" clip-path="url(#clip-path)">
      <path id="Path_83" data-name="Path 83" d="M155.78,241.86c-54.22,10.95-57.31-58.12-76.35-6.69C60,287.67,116,225.56,75.17,298c-32.3,57.26-3,121.48,1.74,171.77,5.25,55.21-65.25,100-58,149.26,16.58,113.43-64.4,159.26,21,185.12,87.65,26.55,89.29-23.84,186.21-22,84.22,1.6,100.26-189.9,96-263.38-4.5-77.79-34.81-96.53-8.33-178.58,15.85-49.1,4.43-98.16-40-112.6C245.22,218.32,221,228.69,155.78,241.86Z" opacity="0.2" fill="url(#linear-gradient-36)"/>
    </g>
  </g>
</svg>
