<svg xmlns="http://www.w3.org/2000/svg" viewBox="0 0 1921 1280.67"><defs><style>.cls-1{fill:none;}.cls-2{fill:#f4f4f4;}</style></defs><title>Asset 6</title><g id="Layer_2" data-name="Layer 2"><g id="Layer_1-2" data-name="Layer 1"><path class="cls-1" d="M1848.47,1156.88c-237.18,168.5-405.09-2.05-444.78-134.78-66.32-221.82-129.94,24.16-378.4-55C818.92,901.42,809.46,639.79,860.58,465.49c32.32-110.21,91.23-211.24,161.52-302.08C1067.72,104.46,1118.53,49.23,1174.47,0H14.94A15,15,0,0,0,0,14.94V1265.73a15,15,0,0,0,14.94,14.94H1906.06a15,15,0,0,0,14.94-14.94v-145C1898.57,1126.78,1874.57,1138.33,1848.47,1156.88Z"/><path class="cls-2" d="M1022.1,163.41c-70.29,90.84-129.2,191.87-161.52,302.08-51.12,174.3-41.66,435.93,164.71,501.65,248.46,79.12,312.08-166.86,378.4,55,39.69,132.73,207.6,303.28,444.78,134.78,26.1-18.55,50.1-30.1,72.53-36.13V14.94A15,15,0,0,0,1906.06,0H1174.47C1118.53,49.23,1067.72,104.46,1022.1,163.41Z"/></g></g></svg>