<svg xmlns="http://www.w3.org/2000/svg" xmlns:xlink="http://www.w3.org/1999/xlink" width="175.626" height="642.843" viewBox="0 0 175.626 642.843">
  <defs>
    <linearGradient id="linear-gradient" x1="0.467" y1="1.689" x2="0.612" y2="-2.079" gradientUnits="objectBoundingBox">
      <stop offset="0" stop-color="#36078b"/>
      <stop offset="1" stop-color="#168d68"/>
    </linearGradient>
    <linearGradient id="linear-gradient-2" x1="0.505" y1="0.473" x2="-0.433" y2="0.922" xlink:href="#linear-gradient"/>
    <linearGradient id="linear-gradient-3" x1="1.028" y1="0.996" x2="-0.735" y2="-0.772" gradientUnits="objectBoundingBox">
      <stop offset="0" stop-color="#36078b"/>
      <stop offset="1" stop-color="#16b1ff"/>
    </linearGradient>
    <linearGradient id="linear-gradient-4" x1="0.4" y1="1.324" x2="0.54" y2="0.084" xlink:href="#linear-gradient"/>
    <linearGradient id="linear-gradient-5" x1="0.771" y1="5.418" x2="0.338" y2="-2.587" gradientUnits="objectBoundingBox">
      <stop offset="0" stop-color="#f70f47"/>
      <stop offset="1" stop-color="#ffb41d"/>
    </linearGradient>
    <linearGradient id="linear-gradient-6" x1="0.69" y1="0.907" x2="-0.205" y2="-1.778" xlink:href="#linear-gradient-5"/>
    <linearGradient id="linear-gradient-7" x1="0.807" y1="1.604" x2="0.103" y2="-0.811" xlink:href="#linear-gradient-5"/>
    <linearGradient id="linear-gradient-8" x1="0.648" y1="0.903" x2="-0.189" y2="-1.734" xlink:href="#linear-gradient-5"/>
    <linearGradient id="linear-gradient-9" x1="0.987" y1="1.637" x2="0.151" y2="-0.784" xlink:href="#linear-gradient-5"/>
    <linearGradient id="linear-gradient-10" x1="-0.828" y1="-3.5" x2="0.703" y2="-4.916" xlink:href="#linear-gradient"/>
    <linearGradient id="linear-gradient-11" x1="1.321" y1="-0.358" x2="-0.413" y2="-0.005" xlink:href="#linear-gradient"/>
    <linearGradient id="linear-gradient-12" x1="0.483" y1="1.8" x2="0.57" y2="-3.25" xlink:href="#linear-gradient"/>
    <linearGradient id="linear-gradient-13" x1="0.63" y1="0.547" x2="-1.059" y2="-1.23" xlink:href="#linear-gradient-3"/>
    <linearGradient id="linear-gradient-14" x1="-4.723" y1="-3.063" x2="-2.262" y2="-3.758" xlink:href="#linear-gradient"/>
    <linearGradient id="linear-gradient-15" x1="0.789" y1="1.387" x2="0.169" y2="-0.719" xlink:href="#linear-gradient-3"/>
    <clipPath id="clip-path">
      <path id="Path_54" data-name="Path 54" d="M961,687.54c-2.21-7.09-2.83-10.65-2.83-13.18.46,0,.41-.5.48-2.38.79-21.35,2-132.92-12.89-166.38v-.06c-.08-.75-.15-1.47-.26-2.25-2.67-19.53-10.18-125.53-11.85-140.24a161.121,161.121,0,0,0-3.53-35.61c-2.61-30.63,3.37-83.84,16.71-127.7a71.4,71.4,0,0,0,3.3-18.46c.36-1.84.66-3.46.94-4.93,1.58-8.29-2.82-14.55-7.68-17-4.37-5.1-11-8.78-20.26-10.53-3.27-.62-6.79-1.25-10.31-1.72-.27-5.56-.68-11.24-1.08-16.05,4.28-4.17,6-7.34,7.12-13.48,2.68-.63,5.71-3.81,7.53-8.28,2.35-5.75,1.81-11.41-1.2-12.64a3.511,3.511,0,0,0-1.33-.22c1.16-4,.26-8.87-1.81-16.61-1.23-4.62-3-7-5.17-7.91,2.52-4-1-10-11.24-13.12C882.07,52.05,855,70.53,855,70.53c5.22,2.4,13.26,2.26,13.26,2.26-1.83,2.25-7.33,5.5-7.33,5.5a42.111,42.111,0,0,0,4.21.68c-3.63,6.27-1.63,19.68-.32,24.2a19.275,19.275,0,0,0,1.23,3.24,100,100,0,0,0,2.72,19.19,27.246,27.246,0,0,0,1.52,4c-3-1.85-6.25-3.08-9.29-2.58-4.52.74,1.26,12.86,6.35,22a43.49,43.49,0,0,0-9.16,3.32c-9,4.8-15.08,11.65-18.42,19.49-9.12,13.66-15.74,24.5-20.55,32.75-3.88.44-7.53,8.4-6.36,11a.6.6,0,0,0,.06.11c-1.15,2.09-2.08,3.83-2.85,5.22-7.57,13.79,4.18,25.51,11.41,24.88a8,8,0,0,0,6.69-1.67,37.562,37.562,0,0,0,4.06-4.1c-2.29,44-2.56,87.47-2.56,87.47a355.769,355.769,0,0,0,4,61.47h0c3.76,36.64,10.47,101.46,11.79,116.4a73.745,73.745,0,0,0,1.46,9.6,40.127,40.127,0,0,0,.79,5.39c6.75,31.79,24.9,94.67,34.6,156.74-1.34,2.23-6.7,7-14.1,10.2-7.6,3.27-23.72,4.8-14.77,7.69s19.39,1.13,24.68.32a111.006,111.006,0,0,1,16.65-1c8.21,0,8.28-.53,7.17-9.47a14.6,14.6,0,0,0-1.29-4.47c-6.39-46.77-.72-131.48-17.54-168.93,2.53-30.26-.62-95.17-.56-121.61.07,1.16.16,2.32.26,3.49,1.7,19.63,15.91,82.21,25.89,118.1a40.006,40.006,0,0,0,1.22,9c7.8,31.68,26,123.57,29.1,152.66h0c-.42,2.53-.24,4-.61,6.24-.6,3.66-4.09,5-6.11,8-2.24,3.32-5.74,8.64,7.94,8.91C954.83,696.49,963.51,695.51,961,687.54ZM883.87,141.41c0,1.59,0,3.25-.1,5h-.3a18.261,18.261,0,0,0-1.87-5.48,13.1,13.1,0,0,0,2.27.48Z" fill="none"/>
    </clipPath>
    <linearGradient id="linear-gradient-16" x1="-2.984" y1="-0.752" x2="-1.21" y2="-0.293" gradientUnits="objectBoundingBox">
      <stop offset="0" stop-color="blue"/>
      <stop offset="1" stop-color="#9e005d"/>
    </linearGradient>
  </defs>
  <g id="guy" transform="translate(-807.573 -57.287)">
    <path id="Path_32" data-name="Path 32" d="M834.07,694.13c0,3.29,33.38,6,74.56,6s74.57-2.67,74.57-6-33.39-6-74.57-6S834.07,690.83,834.07,694.13Z" fill="#d8d8d8"/>
    <path id="Path_33" data-name="Path 33" d="M939.61,670.19c-1.23,4.53-.76,6.15-1.25,9.11-.6,3.66-4.09,5-6.11,8-2.24,3.32-5.74,8.64,7.94,8.91,14.64.28,23.32-.7,20.83-8.67s-3-11.49-2.8-14.09,0-5.31-1.66-6.87S941.76,662.22,939.61,670.19Z" fill="url(#linear-gradient)"/>
    <path id="Path_34" data-name="Path 34" d="M823.64,245.13c5.57-3.22,16.86-12.29,37.69-40.65,12.7-17.3,16.9-25.6,20-31.43,5.62-10.38.31-19.49-7.24-21.32-9.71-2.35-20.29-.84-31.26,15.36A585.284,585.284,0,0,0,810,220.86C801.65,236.15,817,248.94,823.64,245.13Z" fill="url(#linear-gradient-2)"/>
    <path id="Path_35" data-name="Path 35" d="M875.55,107.79c-6,2.81-8.59,2.83-10.75-4.62-1.68-5.78-4.51-26.1,4.75-27.45S886.09,74.09,885,86.61,882.66,104.45,875.55,107.79Z" fill="url(#linear-gradient-3)"/>
    <path id="Path_36" data-name="Path 36" d="M910.57,118.69c.13.91,2.15,20.38,2.5,35.32.18,7.32-7.15,14.27-14.48,14.44h-.32c-7.18,0-15.63-6.5-15-13.69a194.392,194.392,0,0,0,.25-26.52Z" fill="#ea8f68"/>
    <path id="Path_37" data-name="Path 37" d="M946.82,199.74c-13.34,43.86-19.32,97.07-16.71,127.7H829.65s.59-94.09,7.32-145.62c1.56-12,8.45-22.78,21.2-29.55,7.56-4,21.22-5.93,26.78-5.93h18.56c6.23,0,13.4,1.27,19.61,2.44C949.72,153.79,954.56,174.32,946.82,199.74Z" fill="url(#linear-gradient-4)"/>
    <path id="Path_38" data-name="Path 38" d="M929.7,388.91s8.68-21.09.41-61.47H829.65a355.769,355.769,0,0,0,4,61.47Z" fill="url(#linear-gradient-5)"/>
    <path id="Path_39" data-name="Path 39" d="M909.87,520.4c-8-32.71,25.37-38.46,35.91-14.8,14.92,33.46,13.68,145,12.89,166.38-.11,2.8.08,2.56-1.58,2.13-2.47-.63-4.77-6-11.3-5.74-3.75.12-6.82,4.69-6.82,4.69C935.82,644,917.67,552.08,909.87,520.4Z" fill="url(#linear-gradient-6)"/>
    <path id="Path_40" data-name="Path 40" d="M882.76,393.28c-3.53-40.63,9.64-72.15,34.85-58.73,10.61,5.64,14.49,16.94,15.92,27.57s9.23,121.2,12,141.17c6.17,45-29.39,32.9-33.25,20.42C902.5,492.2,884.68,415.42,882.76,393.28Z" fill="url(#linear-gradient-7)"/>
    <path id="Path_41" data-name="Path 41" d="M847.66,520.3c-6.35-29.86,23-34.12,34.5-10.89C900.2,546,894,633.68,900.7,681.1c-6.47-7.3-11.32-7.28-13.55-6.73a7,7,0,0,0-4.77,3.42C872.71,615.48,854.44,552.21,847.66,520.3Z" fill="url(#linear-gradient-8)"/>
    <path id="Path_42" data-name="Path 42" d="M838.82,211.72c-5.36-2-13.73-5-18.1-7s-9.2,7.83-7.88,10.79c2,4.4,12.33,13.82,17.79,11s9.61,1.33,13.47-2.63S847.59,214.94,838.82,211.72Z" fill="#ffaf84"/>
    <path id="Path_43" data-name="Path 43" d="M882.37,517.83c-1.84,12.93-33,32.76-37-12.52-1.77-20.08-13.3-130.37-14.27-141.06s-2.4-26.95,1.38-29.54c23.55-16.14,50.3,12.69,50,53.47C882.29,415.45,886.17,491,882.37,517.83Z" fill="url(#linear-gradient-9)"/>
    <path id="Path_44" data-name="Path 44" d="M838.44,222c3.74,7.33,10.08,10.29,26.39,20.69,23.49,15,36.57,20.79,48.26,21s13.58-23.87-.44-31.39c-11.85-6.36-60-14.07-67.21-18C840.67,211.76,835.41,216,838.44,222Z" fill="url(#linear-gradient-10)"/>
    <path id="Path_45" data-name="Path 45" d="M882.18,152.71c-.4,8.22-2.33,14.81-12.72,31.13-14,21.89-31.55,52-41.31,60.23-9,7.58-26.49-9.71-16.81-22.32,8.19-10.67,56.57-66.51,61.53-73C876.15,144.42,882.51,146,882.18,152.71Z" fill="url(#linear-gradient-11)"/>
    <path id="Path_46" data-name="Path 46" d="M920.43,104.59c-1.66,16.62-2.15,20.3-9.41,27.11s-17.65,9.92-25.53,9.92c-8.51,0-14.81-9-16.74-16-2-7.28-4.31-24.36-1.92-42.57,1.21-9.23,12.6-20.42,24.34-20.42S924.49,64,920.43,104.59Z" fill="#ffaf84"/>
    <path id="Path_47" data-name="Path 47" d="M882.39,676.84c-1.14,2.15-6.63,7.13-14.23,10.4s-23.72,4.8-14.77,7.69,19.39,1.13,24.68.32a110.988,110.988,0,0,1,16.65-1c8.21,0,8.28-.53,7.17-9.47C900.37,672.5,886.1,669.9,882.39,676.84Z" fill="url(#linear-gradient-12)"/>
    <path id="Path_48" data-name="Path 48" d="M920.39,102c-4.49,4.49-6.84,5.36-11.23-.66-3.4-4.68-12.61-22.13-4.66-26.38s14.42-6.88,17.54,4.8S925.73,96.67,920.39,102Z" fill="url(#linear-gradient-13)"/>
    <path id="Path_49" data-name="Path 49" d="M915.48,104.8c-2.36,5.75-1.82,11.41,1.2,12.64s7.35-2.44,9.7-8.19,1.81-11.41-1.2-12.64S917.82,99.05,915.48,104.8Z" fill="#ffaf84"/>
    <path id="Path_50" data-name="Path 50" d="M873.14,158.58c-2.3-3.34-19-30.47-12.16-31.59,7.55-1.23,16.53,8.09,19.16,11.6,4.81,6.4,4.32,14.92,1.22,18.68C879.17,159.93,875.32,161.75,873.14,158.58Z" fill="#ffaf84"/>
    <path id="Path_51" data-name="Path 51" d="M916.31,263.43c5.79-2.82,13.94-17.72,25.18-51.06,6.85-20.34,8.34-29.52,9.57-36,2.2-11.6-7.28-19.27-13.37-18.12-9.82,1.84-21.88,11-23.41,17-8.61,33.91-13.15,60.51-16.69,68.34C892.44,255,910,266.52,916.31,263.43Z" fill="url(#linear-gradient-14)"/>
    <path id="Path_52" data-name="Path 52" d="M915,73.85c-5.46,3.71-30.41,10.5-37.74,12.34,0,0,10.16-5.22,11.71-7.9,0,0-17.36,2.4-28.07,0,0,0,5.5-3.25,7.33-5.5,0,0-8,.14-13.26-2.26,0,0,27.09-18.48,50.65-11.78C917.76,62.42,920.51,70.11,915,73.85Z" fill="url(#linear-gradient-15)"/>
    <g id="Group_2" data-name="Group 2" clip-path="url(#clip-path)">
      <path id="Path_53" data-name="Path 53" d="M983.2,129.06c-46.77-18-101.61,33.69-106.26,87.1-4.75,54.52,38.82,72.19,20,149.93-14.87,61.48,25.64,118.49,41.5,166.44,17.43,52.64-33.67,109-15.91,155.51,40.88,107.09-19.13,166.38,61.39,175.89,82.68,9.78,72.38-39.45,157.4-55.35,73.87-13.82,43.3-202.67,22.48-273.24-22-74.69-68.27-79.7-64.26-164.2,2.41-50.56,6.58-79.95-51.23-123.55C1018.71,225.25,1072.66,163.56,983.2,129.06Z" opacity="0.3" fill="url(#linear-gradient-16)"/>
    </g>
  </g>
</svg>
